<svg width="19" height="16" viewBox="0 0 19 16" fill="none" xmlns="http://www.w3.org/2000/svg">
<g clip-path="url(#clip0_150_2)">
<path d="M5.58859 0.335715C5.12472 -0.110714 4.3714 -0.110714 3.90753 0.335715L0.345031 3.76429C-0.118836 4.21071 -0.118836 4.93572 0.345031 5.38214C0.808898 5.82857 1.56222 5.82857 2.02609 5.38214L3.56241 3.90357L3.56241 14.8571C3.56241 15.4893 4.09308 16 4.74991 16C5.40675 16 5.93741 15.4893 5.93741 14.8571L5.93741 3.90357L7.47374 5.38214C7.93761 5.82857 8.69093 5.82857 9.1548 5.38214C9.61866 4.93571 9.61866 4.21071 9.1548 3.76429L5.5923 0.335715L5.58859 0.335715ZM18.6511 12.2393C19.115 11.7929 19.115 11.0679 18.6511 10.6214C18.1872 10.175 17.4339 10.175 16.97 10.6214L15.4374 12.0964L15.4374 1.14286C15.4374 0.510715 14.9067 3.01954e-07 14.2499 3.30665e-07C13.5931 3.59377e-07 13.0624 0.510715 13.0624 1.14286L13.0624 12.0964L11.5261 10.6179C11.0622 10.1714 10.3089 10.1714 9.84503 10.6179C9.38116 11.0643 9.38116 11.7893 9.84503 12.2357L13.4075 15.6643C13.8714 16.1107 14.6247 16.1107 15.0886 15.6643L18.6511 12.2357L18.6511 12.2393Z" fill="#CACACA"/>
</g>
<defs>
<clipPath id="clip0_150_2">
<rect width="16" height="19" fill="white" transform="translate(0 16) rotate(-90)"/>
</clipPath>
</defs>
</svg>
