<svg width="12" height="12" viewBox="0 0 12 12" fill="none" xmlns="http://www.w3.org/2000/svg">
<path fill-rule="evenodd" clip-rule="evenodd" d="M7.5 2C7.5 1.72386 7.72386 1.5 8 1.5H10C10.2761 1.5 10.5 1.72386 10.5 2V4C10.5 4.27614 10.2761 4.5 10 4.5C9.72386 4.5 9.5 4.27614 9.5 4V2.5H8C7.72386 2.5 7.5 2.27614 7.5 2Z" fill="#CACACA"/>
<path fill-rule="evenodd" clip-rule="evenodd" d="M10.3536 1.64645C10.5488 1.84171 10.5488 2.15829 10.3536 2.35355L7.35355 5.35355C7.15829 5.54882 6.84171 5.54882 6.64645 5.35355C6.45118 5.15829 6.45118 4.84171 6.64645 4.64645L9.64645 1.64645C9.84171 1.45118 10.1583 1.45118 10.3536 1.64645Z" fill="#CACACA"/>
<path fill-rule="evenodd" clip-rule="evenodd" d="M2 7.5C2.27614 7.5 2.5 7.72386 2.5 8V9.5H4C4.27614 9.5 4.5 9.72386 4.5 10C4.5 10.2761 4.27614 10.5 4 10.5H2C1.72386 10.5 1.5 10.2761 1.5 10V8C1.5 7.72386 1.72386 7.5 2 7.5Z" fill="#CACACA"/>
<path fill-rule="evenodd" clip-rule="evenodd" d="M5.35355 6.64645C5.54882 6.84171 5.54882 7.15829 5.35355 7.35355L2.35355 10.3536C2.15829 10.5488 1.84171 10.5488 1.64645 10.3536C1.45118 10.1583 1.45118 9.84171 1.64645 9.64645L4.64645 6.64645C4.84171 6.45118 5.15829 6.45118 5.35355 6.64645Z" fill="#CACACA"/>
<path fill-rule="evenodd" clip-rule="evenodd" d="M10 7.5C10.2761 7.5 10.5 7.72386 10.5 8V10C10.5 10.2761 10.2761 10.5 10 10.5H8C7.72386 10.5 7.5 10.2761 7.5 10C7.5 9.72386 7.72386 9.5 8 9.5H9.5V8C9.5 7.72386 9.72386 7.5 10 7.5Z" fill="#CACACA"/>
<path fill-rule="evenodd" clip-rule="evenodd" d="M6.64645 6.64645C6.84171 6.45118 7.15829 6.45118 7.35355 6.64645L10.3536 9.64645C10.5488 9.84171 10.5488 10.1583 10.3536 10.3536C10.1583 10.5488 9.84171 10.5488 9.64645 10.3536L6.64645 7.35355C6.45118 7.15829 6.45118 6.84171 6.64645 6.64645Z" fill="#CACACA"/>
<path fill-rule="evenodd" clip-rule="evenodd" d="M1.5 2C1.5 1.72386 1.72386 1.5 2 1.5H4C4.27614 1.5 4.5 1.72386 4.5 2C4.5 2.27614 4.27614 2.5 4 2.5H2.5V4C2.5 4.27614 2.27614 4.5 2 4.5C1.72386 4.5 1.5 4.27614 1.5 4V2Z" fill="#CACACA"/>
<path fill-rule="evenodd" clip-rule="evenodd" d="M1.64645 1.64645C1.84171 1.45118 2.15829 1.45118 2.35355 1.64645L5.35355 4.64645C5.54882 4.84171 5.54882 5.15829 5.35355 5.35355C5.15829 5.54882 4.84171 5.54882 4.64645 5.35355L1.64645 2.35355C1.45118 2.15829 1.45118 1.84171 1.64645 1.64645Z" fill="#CACACA"/>
</svg>
